#!OML:ASF I:\Actors\actors\Patient Classification 1\Patient 1\Session 1\Subject1.ASF
:FULLY-SPECIFIED
:DEGREES
648
root 0.572355 17.5799 8.49066 11.0747 -2.40827 -6.40852
lowerback 13.4295 1.05031 9.40925
upperback -12.1055 3.32879 -2.19387
thorax -20.9192 -0.236615 -8.97849
lowerneck -3.94448 11.5413 6.98918
upperneck -16.235 13.5783 -18.0499
head -2.2833 7.10668 -6.56774
rclavicle -3.24019e-014 3.65764e-014
rhumerus -58.246 -22.8667 -66.941
rradius 18.3963
rwrist 45.6828
rhand -0.824649 -21.5384
rfingers 7.12502
rthumb 24.8003 -49.9502
lclavicle -3.24019e-014 3.65764e-014
lhumerus -40.1716 14.7857 73.3567
lradius 14.3459
lwrist -44.4182
lhand -16.9931 -19.9783
lfingers 7.12502
lthumb 9.24203 9.79918
rfemur -2.5598 27.2909 22.5184
rtibia 0.467958
rfoot -12.6188 -27.0679
rtoes 4.39181
lfemur 4.23843 -39.8492 -13.26
ltibia -4.31681
lfoot -17.0755 46.6369
ltoes 4.14031
649
root 0.572717 17.5785 8.4866 11.0637 -2.36148 -6.46998
lowerback 13.4282 1.02698 9.49447
upperback -12.079 3.31753 -2.17927
thorax -20.8826 -0.248672 -9.00433
lowerneck -4.04233 11.7847 7.14806
upperneck -15.4833 13.983 -18.1613
head -1.9752 7.27724 -6.55528
rclavicle -3.37934e-014 2.22639e-014
rhumerus -58.1236 -22.944 -66.9645
rradius 18.3383
rwrist 45.7326
rhand -0.88998 -21.5016
rfingers 7.12502
rthumb 24.7377 -49.9221
lclavicle -3.37934e-014 2.22639e-014
lhumerus -40.1037 14.7615 73.3588
lradius 14.371
lwrist -44.3556
lhand -16.8693 -19.9491
lfingers 7.12502
lthumb 9.36144 9.823
rfemur -2.54911 27.3236 22.6034
rtibia 0.472448
rfoot -12.6461 -27.1454
rtoes 4.22587
lfemur 4.20306 -39.7242 -13.1263
ltibia -4.36602
lfoot -16.9711 46.5097
ltoes 4.00144
650
root 0.572734 17.5779 8.48308 11.0588 -2.34164 -6.46491
lowerback 13.4052 1.03748 9.5035
upperback -12.0489 3.32968 -2.18076
thorax -20.8232 -0.238382 -9.01034
lowerneck -4.1059 12.0093 7.276
upperneck -14.7815 14.3592 -18.2833
head -1.69211 7.43834 -6.54658
rclavicle 3.97569e-015 2.06736e-014
rhumerus -57.9493 -23.0423 -66.9707
rradius 18.2461
rwrist 45.7962
rhand -0.908252 -21.4949
rfingers 7.12502
rthumb 24.7201 -49.9177
lclavicle 3.97569e-015 2.06736e-014
lhumerus -40.0309 14.7616 73.3708
lradius 14.3742
lwrist -44.4208
lhand -16.8635 -19.9355
lfingers 7.12502
lthumb 9.36706 9.83639
rfemur -2.55815 27.303 22.5965
rtibia 0.478288
rfoot -12.6499 -27.1727
rtoes 4.02856
lfemur 4.18972 -39.7311 -13.113
ltibia -4.38325
lfoot -16.927 46.5072
ltoes 3.88602
651
root 0.573484 17.5779 8.48099 11.0709 -2.35862 -6.42431
lowerback 13.3483 1.08815 9.49015
upperback -12.0195 3.38428 -2.20773
thorax -20.731 -0.20595 -9.04318
lowerneck -4.07368 12.1996 7.3786
upperneck -14.1324 14.691 -18.3815
head -1.44956 7.58339 -6.53805
rclavicle -6.75868e-015 3.97569e-015
rhumerus -57.7939 -23.0861 -67.0779
rradius 18.235
rwrist 45.7292
rhand -0.844652 -21.6385
rfingers 7.12502
rthumb 24.7811 -50.053
lclavicle -6.75868e-015 3.97569e-015
lhumerus -39.9159 14.8014 73.3653
lradius 14.3192
lwrist -44.5844
lhand -16.9207 -19.8121
lfingers 7.12502
lthumb 9.31188 9.96224
rfemur -2.59469 27.229 22.5226
rtibia 0.48641
rfoot -12.655 -27.0841
rtoes 4.05158
lfemur 4.22671 -40.0077 -13.2272
ltibia -4.34433
lfoot -17.1542 46.729
ltoes 4.20739
652
root 0.575073 17.578 8.47821 11.0769 -2.37057 -6.39344
lowerback 13.315 1.12858 9.50394
upperback -11.9866 3.43324 -2.23603
thorax -20.6503 -0.181185 -9.09282
lowerneck -3.91317 12.3662 7.51331
upperneck -13.6471 14.9751 -18.5376
head -1.27276 7.71568 -6.5704
rclavicle -3.63776e-014 -1.59028e-015
rhumerus -57.646 -23.0612 -67.2905
rradius 18.273
rwrist 45.4745
rhand -0.812574 -21.8577
rfingers 7.12502
rthumb 24.8118 -50.2679
lclavicle -3.63776e-014 -1.59028e-015
lhumerus -39.7625 15.0075 73.2545
lradius 14.194
lwrist -44.8798
lhand -16.9889 -19.7803
lfingers 7.12502
lthumb 9.24604 9.99695
rfemur -2.6326 27.1531 22.4577
rtibia 0.505805
rfoot -12.7029 -26.9878
rtoes 4.12385
lfemur 4.25219 -40.2666 -13.3299
ltibia -4.27996
lfoot -17.4767 46.9171
ltoes 4.72494
653
root 0.576974 17.5785 8.4765 11.0423 -2.40329 -6.39515
lowerback 13.3092 1.1529 9.54181
upperback -11.9596 3.4716 -2.24845
thorax -20.5982 -0.165788 -9.13695
lowerneck -3.71483 12.5629 7.64868
upperneck -13.1646 15.3049 -18.665
head -1.09963 7.87099 -6.59342
rclavicle 8.54774e-015 -2.78299e-014
rhumerus -57.5981 -23.0684 -67.386
rradius 18.3147
rwrist 45.3448
rhand -0.826515 -21.8895
rfingers 7.12502
rthumb 24.7985 -50.3016
lclavicle 8.54774e-015 -2.78299e-014
lhumerus -39.6791 15.3349 73.0267
lradius 14.0531
lwrist -45.3157
lhand -17.0571 -19.978
lfingers 7.12502
lthumb 9.18023 9.80218
rfemur -2.61484 27.0931 22.4564
rtibia 0.504025
rfoot -12.6578 -26.9233
rtoes 3.89606
lfemur 4.33415 -40.3716 -13.4121
ltibia -4.2615
lfoot -17.6283 47.0177
ltoes 4.9652
654
root 0.578119 17.5791 8.47716 10.9828 -2.48236 -6.41602
lowerback 13.3052 1.18857 9.57258
upperback -11.938 3.52654 -2.24962
thorax -20.5513 -0.141407 -9.16888
lowerneck -3.50039 12.7414 7.87019
upperneck -12.6223 15.6163 -18.859
head -0.899362 8.01431 -6.64685
rclavicle -1.41137e-014 -3.02153e-014
rhumerus -57.6444 -23.1105 -67.3526
rradius 18.3748
rwrist 45.362
rhand -0.834706 -21.7441
rfingers 7.12502
rthumb 24.7906 -50.1573
lclavicle -1.41137e-014 -3.02153e-014
lhumerus -39.683 15.6029 72.8005
lradius 13.965
lwrist -45.6781
lhand -17.1927 -20.2012
lfingers 7.12502
lthumb 9.04937 9.58473
rfemur -2.55742 27.0801 22.4969
rtibia 0.499953
rfoot -12.5755 -26.851
rtoes 3.63181
lfemur 4.47794 -40.3245 -13.4815
ltibia -4.31273
lfoot -17.6763 47.0358
ltoes 5.06909
